<?xml version="1.0" standalone="no"?><!DOCTYPE svg PUBLIC "-//W3C//DTD SVG 1.1//EN" "http://www.w3.org/Graphics/SVG/1.1/DTD/svg11.dtd"><svg t="1756832554264" class="icon" viewBox="0 0 1175 1024" version="1.1" xmlns="http://www.w3.org/2000/svg" p-id="18653" xmlns:xlink="http://www.w3.org/1999/xlink" width="293.75" height="256"><path d="M780.190476 370.590476v-34.133333c0-82.895238-78.019048-87.771429-82.895238-87.771429H477.866667C390.095238 248.685714 390.095238 331.580952 390.095238 331.580952v43.885715c-73.142857 24.380952-141.409524 68.266667-175.542857 136.533333 0 0-92.647619 175.542857-92.647619 277.942857v146.285714S117.028571 1024 209.67619 1024h741.180953s92.647619-4.87619 92.647619-87.771429v-141.409523c0-136.533333-92.647619-287.695238-92.647619-287.695238-43.885714-68.266667-112.152381-107.27619-170.666667-136.533334z m209.676191 565.638095c0 24.380952-19.504762 29.257143-39.009524 34.133334H209.67619c-9.752381 0-19.504762 0-24.380952-4.876191-4.87619-4.87619-4.87619-19.504762-4.87619-19.504762v-146.285714c0-73.142857 63.390476-209.67619 82.895238-253.561905 24.380952-43.885714 73.142857-82.895238 146.285714-107.27619l34.133333-14.628572v-97.523809s0-9.752381 4.876191-14.628572c0 0 4.87619-9.752381 24.380952-9.75238h219.428572c29.257143 0 29.257143 19.504762 29.257142 34.133333v68.266667l29.257143 14.628571c63.390476 29.257143 112.152381 68.266667 151.161905 117.028571 9.752381 14.628571 82.895238 141.409524 82.895238 258.438096v141.409523zM1160.533333 243.809524c-9.752381-58.514286-107.27619-243.809524-560.761904-243.809524h-4.876191C126.780952 0 14.628571 190.171429 9.752381 248.685714l-9.752381 97.52381c0 19.504762 19.504762 34.133333 39.009524 34.133333h273.066666c19.504762 0 39.009524-14.628571 39.009524-39.009524l-14.628571-92.647619C341.333333 209.67619 390.095238 199.92381 487.619048 190.171429h234.057142c48.761905 0 102.4 9.752381 107.276191 53.638095l-4.876191 92.647619c0 19.504762 19.504762 34.133333 39.009524 34.133333h273.066667c19.504762 0 39.009524-14.628571 39.009524-39.009524L1160.533333 243.809524zM877.714286 321.828571l4.87619-73.142857v-9.752381C877.714286 146.285714 765.561905 136.533333 721.67619 131.657143H472.990476c-87.771429 14.628571-185.295238 24.380952-195.047619 112.152381v9.752381l9.752381 68.266666H53.638095l9.752381-73.142857C68.266667 204.8 170.666667 48.761905 590.019048 48.761905h4.87619c385.219048 0 497.371429 141.409524 507.12381 195.047619l9.752381 68.266666-234.057143 9.752381z" fill="#ffffff" p-id="18654"></path></svg>