<?xml version="1.0" standalone="no"?><!DOCTYPE svg PUBLIC "-//W3C//DTD SVG 1.1//EN" "http://www.w3.org/Graphics/SVG/1.1/DTD/svg11.dtd"><svg t="1756828431357" class="icon" viewBox="0 0 1024 1024" version="1.1" xmlns="http://www.w3.org/2000/svg" p-id="7032" xmlns:xlink="http://www.w3.org/1999/xlink" width="256" height="256"><path d="M839.69024 266.24h-655.36c-39.58784 0-71.68 32.09216-71.68 71.68v471.04c0 39.58784 32.09216 71.68 71.68 71.68h655.36c39.58784 0 71.68-32.09216 71.68-71.68V337.92c0-39.58784-32.09216-71.68-71.68-71.68z m-655.36 61.44h655.36a10.24 10.24 0 0 1 10.24 10.24v471.04a10.24 10.24 0 0 1-10.24 10.24h-655.36a10.24 10.24 0 0 1-10.24-10.24V337.92a10.24 10.24 0 0 1 10.24-10.24z" fill="#c580f2" p-id="7033"></path><path d="M624.61952 143.36c39.05536 0 70.8096 31.232 71.66464 70.07744l0.01536 1.60256v81.92a30.72 30.72 0 0 1-61.41952 1.152l-0.02048-1.152V215.04a10.24 10.24 0 0 0-9.472-10.2144l-0.768-0.0256h-225.28a10.24 10.24 0 0 0-10.20928 9.472l-0.03072 0.768v81.92A30.72 30.72 0 0 1 327.68 298.112L327.65952 296.96V215.04c0-39.05536 31.232-70.8096 70.07744-71.66464l1.60256-0.01536h225.28zM865.26464 478.91456a30.72 30.72 0 0 1 30.7712 53.18144A764.53888 764.53888 0 0 1 512.0256 634.88a764.63104 764.63104 0 0 1-384.04096-102.74816 30.72 30.72 0 1 1 30.76096-53.18656 703.26784 703.26784 0 0 0 353.28 94.49472 703.1808 703.1808 0 0 0 353.23904-94.52544z" fill="#c580f2" p-id="7034"></path><path d="M558.05952 450.56a30.72 30.72 0 0 1 1.152 61.41952l-1.152 0.02048h-92.16a30.72 30.72 0 0 1-1.152-61.41952l1.152-0.02048h92.16z" fill="#c580f2" p-id="7035"></path></svg>