<?xml version="1.0" standalone="no"?><!DOCTYPE svg PUBLIC "-//W3C//DTD SVG 1.1//EN" "http://www.w3.org/Graphics/SVG/1.1/DTD/svg11.dtd"><svg t="1757039489429" class="icon" viewBox="0 0 1024 1024" version="1.1" xmlns="http://www.w3.org/2000/svg" p-id="4014" xmlns:xlink="http://www.w3.org/1999/xlink" width="256" height="256"><path d="M43.968 652.288l5.248 2.496 425.28 226.24c6.4 3.776 13.312 4.544 19.904 2.368l4.928-2.176 413.76-216.64a32 32 0 0 1 36.416 52.352l-4.8 3.264-413.76 216.704a87.68 87.68 0 0 1-80.576 3.648l-8.448-4.48L16.64 709.952a32 32 0 0 1 27.328-57.6z m-0.896-198.4l5.184 2.496L473.6 682.624c6.4 3.776 13.312 4.544 19.904 2.368l4.928-2.176 413.76-216.64a32 32 0 0 1 36.352 52.352l-4.736 3.264-413.76 216.704a87.68 87.68 0 0 1-80.576 3.648l-8.448-4.48L15.744 511.552a32 32 0 0 1 27.328-57.6z m480.192-379.776l419.968 209.984a32 32 0 0 1 0 57.28L524.416 550.784a96 96 0 0 1-87.232-0.704L18.176 332.288a32 32 0 0 1 0.896-57.28l419.712-201.6a96 96 0 0 1 84.48 0.704z m-56.768 57.024L104.448 305.024l362.24 188.288a32 32 0 0 0 23.424 2.368l5.696-2.176 361.6-180.8-362.752-181.312a32 32 0 0 0-28.16-0.256z" fill="#ffffff" p-id="4015"></path></svg>