<?xml version="1.0" standalone="no"?><!DOCTYPE svg PUBLIC "-//W3C//DTD SVG 1.1//EN" "http://www.w3.org/Graphics/SVG/1.1/DTD/svg11.dtd"><svg t="1756828789983" class="icon" viewBox="0 0 2048 1024" version="1.1" xmlns="http://www.w3.org/2000/svg" p-id="17567" xmlns:xlink="http://www.w3.org/1999/xlink" width="512" height="256"><path d="M1239.312383 307.3734c-12.784647-6.39413-14.916023-21.317378-6.397742-31.977873 6.397742-8.529119 12.795484-17.051012 17.058237-25.580132 40.496155-70.346264 38.364778-151.349411-8.525506-176.925929-10.660495-6.39413-21.313766-8.525506-34.105638-8.525506-12.795484 0-23.448755 2.131377-36.240626 8.525506-2.131377 2.134989-6.39413 2.134989-8.525507 2.134989-6.390517 0-12.784647-2.134989-17.051012-8.525506C1117.809469 28.126946 1073.046948 2.546814 1021.890298 2.546814c-51.160262 0-95.922783 25.580131-123.637903 63.952135-4.262753 6.39413-10.660495 8.525506-17.051012 8.525506-2.131377 0-6.397742 0-8.529119-2.134989-10.65327-8.525506-23.445142-10.660495-34.102025-10.660495-12.795484 0-23.448755 2.134989-34.10925 8.529118-44.766133 25.580131-49.028886 106.579666-8.529119 176.922317 6.397742 8.529119 10.660495 19.186002 17.054625 25.580132 8.525506 10.660495 6.39413 25.580131-6.397742 31.977873-149.210809 78.868158-251.531334 236.608086-251.531334 417.793156 0 91.663642 29.846497 176.933155 78.87177 247.275806 23.448755 31.974261 61.817145 51.153037 102.316913 51.153038h575.540309c40.499767 0 78.868158-19.182389 102.3133-51.153038 49.032498-70.346264 78.875383-155.612164 78.875382-247.275806 0-181.181458-102.320525-338.921386-253.66271-415.658167z m140.688915 637.353842c-14.923248 21.320991-40.50338 34.105637-68.214887 34.105637H736.246102c-27.711508 0-53.291639-12.784647-68.211275-34.105637-44.766133-63.944909-70.342652-140.685303-70.342652-221.692062 0-159.871305 87.393664-304.815748 230.217569-379.428378 17.051012-8.529119 27.711508-23.448755 31.977873-42.627532 4.259141-19.186002 0-38.368391-12.795484-53.295251-4.262753-6.390517-10.65327-14.916023-14.916023-21.317378-14.919636-27.707895-21.317378-57.55078-21.317379-80.995922 0-19.186002 6.397742-31.977873 14.919636-36.240627 4.266366-4.259141 8.529119-4.259141 12.795485-4.25914 6.390517 0 12.788259 2.127764 21.317378 4.25914 8.521894 4.266366 17.051012 4.266366 25.580131 4.266366 21.317378 0 40.499767-10.656883 53.288027-27.711508 17.051012-27.707895 51.160262-44.766133 85.262287-44.766133 34.10925 0 68.214887 17.058237 87.404502 46.89751 12.788259 17.058237 31.974261 27.711508 53.288026 27.711508 8.525506 0 17.058237-2.131377 25.576519-4.266366 8.529119-2.127764 14.930473-4.259141 21.317378-4.259141 4.266366 0 8.525506 0 12.795484 2.131377 19.182389 10.664108 25.576519 61.817145-6.397742 119.371537-4.266366 8.525506-8.525506 14.919636-14.919636 21.317378-12.795484 14.923248-17.058237 34.105637-12.795484 53.288027 4.262753 19.186002 14.930473 34.105637 31.981486 42.634756 140.685303 72.477641 228.086192 217.422084 228.086192 377.293389-0.01445 81.003147-25.598194 157.743541-70.357102 221.68845zM1024.010838 445.927327c0 117.236548-95.91917 213.162944-213.159332 213.162943 117.240161 0 213.159331 95.926395 213.159332 213.166556 0-117.240161 95.926395-213.166556 213.166556-213.166556-117.236548 0-213.166556-95.926395-213.166556-213.162943z m0 285.640584c-19.186002-27.718733-42.631144-53.295252-72.470416-72.477641 27.707895-19.186002 53.284414-42.631144 72.470416-72.47764 19.193227 27.718733 42.638369 53.295252 72.481253 72.47764-29.839272 19.182389-53.288027 42.631144-72.481253 72.477641z" fill="#c580f2" p-id="17568"></path></svg>